<svg xmlns="http://www.w3.org/2000/svg" xmlns:xlink="http://www.w3.org/1999/xlink" viewBox="0 0 1462.8001 856.7">
  <defs>
    <style>
      .cls-1, .cls-12, .cls-14, .cls-16, .cls-18, .cls-20, .cls-23, .cls-25, .cls-27, .cls-29, .cls-31, .cls-34, .cls-36, .cls-38, .cls-4, .cls-40, .cls-42, .cls-45, .cls-47, .cls-49, .cls-51, .cls-53, .cls-56, .cls-57, .cls-58 {
        fill: #fff;
      }

      .cls-13, .cls-15, .cls-17, .cls-19, .cls-2, .cls-21, .cls-24, .cls-26, .cls-28, .cls-3, .cls-30, .cls-32, .cls-35, .cls-37, .cls-39, .cls-41, .cls-43, .cls-46, .cls-48, .cls-5, .cls-50, .cls-52, .cls-54 {
        fill: none;
      }

      .cls-2 {
        stroke: #cecece;
        stroke-width: 0.5px;
      }

      .cls-12, .cls-13, .cls-14, .cls-15, .cls-16, .cls-17, .cls-18, .cls-19, .cls-2, .cls-20, .cls-21, .cls-23, .cls-24, .cls-25, .cls-26, .cls-27, .cls-28, .cls-29, .cls-3, .cls-30, .cls-31, .cls-32, .cls-34, .cls-35, .cls-36, .cls-37, .cls-38, .cls-39, .cls-4, .cls-40, .cls-41, .cls-42, .cls-43, .cls-45, .cls-46, .cls-47, .cls-48, .cls-49, .cls-5, .cls-50, .cls-51, .cls-52, .cls-53, .cls-54, .cls-56, .cls-57, .cls-58 {
        stroke-miterlimit: 10;
      }

      .cls-3 {
        stroke: #a0a0a0;
      }

      .cls-12, .cls-13, .cls-14, .cls-15, .cls-16, .cls-17, .cls-18, .cls-19, .cls-20, .cls-21, .cls-23, .cls-24, .cls-25, .cls-26, .cls-27, .cls-28, .cls-29, .cls-3, .cls-30, .cls-31, .cls-32, .cls-34, .cls-35, .cls-36, .cls-37, .cls-38, .cls-39, .cls-40, .cls-41, .cls-42, .cls-43, .cls-45, .cls-46, .cls-47, .cls-48, .cls-49, .cls-50, .cls-51, .cls-52, .cls-53, .cls-54, .cls-56, .cls-57, .cls-58 {
        stroke-width: 1.5px;
      }

      .cls-4 {
        stroke: #f48c6c;
      }

      .cls-4, .cls-5 {
        stroke-width: 1.75px;
      }

      .cls-5 {
        stroke: #6d6d6d;
      }

      .cls-6 {
        fill: #6d6d6d;
      }

      .cls-7 {
        isolation: isolate;
      }

      .cls-8 {
        fill: #999;
      }

      .cls-9 {
        fill: #494949;
      }

      .cls-10 {
        fill: #515151;
      }

      .cls-11 {
        fill: url(#linear-gradient);
      }

      .cls-12 {
        stroke: url(#linear-gradient-2);
      }

      .cls-13 {
        stroke: url(#linear-gradient-3);
      }

      .cls-14 {
        stroke: url(#linear-gradient-4);
      }

      .cls-15 {
        stroke: url(#linear-gradient-5);
      }

      .cls-16 {
        stroke: url(#linear-gradient-6);
      }

      .cls-17 {
        stroke: url(#linear-gradient-7);
      }

      .cls-18 {
        stroke: url(#linear-gradient-8);
      }

      .cls-19 {
        stroke: url(#linear-gradient-9);
      }

      .cls-20 {
        stroke: url(#linear-gradient-10);
      }

      .cls-21 {
        stroke: url(#linear-gradient-11);
      }

      .cls-22 {
        fill: url(#linear-gradient-12);
      }

      .cls-23 {
        stroke: url(#linear-gradient-13);
      }

      .cls-24 {
        stroke: url(#linear-gradient-14);
      }

      .cls-25 {
        stroke: url(#linear-gradient-15);
      }

      .cls-26 {
        stroke: url(#linear-gradient-16);
      }

      .cls-27 {
        stroke: url(#linear-gradient-17);
      }

      .cls-28 {
        stroke: url(#linear-gradient-18);
      }

      .cls-29 {
        stroke: url(#linear-gradient-19);
      }

      .cls-30 {
        stroke: url(#linear-gradient-20);
      }

      .cls-31 {
        stroke: url(#linear-gradient-21);
      }

      .cls-32 {
        stroke: url(#linear-gradient-22);
      }

      .cls-33 {
        fill: url(#linear-gradient-23);
      }

      .cls-34 {
        stroke: url(#linear-gradient-24);
      }

      .cls-35 {
        stroke: url(#linear-gradient-25);
      }

      .cls-36 {
        stroke: url(#linear-gradient-26);
      }

      .cls-37 {
        stroke: url(#linear-gradient-27);
      }

      .cls-38 {
        stroke: url(#linear-gradient-28);
      }

      .cls-39 {
        stroke: url(#linear-gradient-29);
      }

      .cls-40 {
        stroke: url(#linear-gradient-30);
      }

      .cls-41 {
        stroke: url(#linear-gradient-31);
      }

      .cls-42 {
        stroke: url(#linear-gradient-32);
      }

      .cls-43 {
        stroke: url(#linear-gradient-33);
      }

      .cls-44 {
        fill: url(#linear-gradient-34);
      }

      .cls-45 {
        stroke: url(#linear-gradient-35);
      }

      .cls-46 {
        stroke: url(#linear-gradient-36);
      }

      .cls-47 {
        stroke: url(#linear-gradient-37);
      }

      .cls-48 {
        stroke: url(#linear-gradient-38);
      }

      .cls-49 {
        stroke: url(#linear-gradient-39);
      }

      .cls-50 {
        stroke: url(#linear-gradient-40);
      }

      .cls-51 {
        stroke: url(#linear-gradient-41);
      }

      .cls-52 {
        stroke: url(#linear-gradient-42);
      }

      .cls-53 {
        stroke: url(#linear-gradient-43);
      }

      .cls-54 {
        stroke: url(#linear-gradient-44);
      }

      .cls-55 {
        fill: #666;
      }

      .cls-56 {
        stroke: #b3b3b3;
      }

      .cls-57 {
        stroke: #ccc;
      }

      .cls-58 {
        stroke: #e6e6e6;
      }
    </style>
    <linearGradient id="linear-gradient" x1="357.39075" y1="691.30344" x2="451.60923" y2="691.30344" gradientTransform="matrix(1, 0, 0, -1, 0, 1315.9)" gradientUnits="userSpaceOnUse">
      <stop offset="0" stop-color="#cecece"/>
      <stop offset="1" stop-color="#b7b7b7"/>
    </linearGradient>
    <linearGradient id="linear-gradient-2" x1="335.03851" y1="622.03947" x2="473.96147" y2="622.03947" xlink:href="#linear-gradient"/>
    <linearGradient id="linear-gradient-3" x1="438.49409" y1="623.48604" x2="458.7459" y2="623.48604" xlink:href="#linear-gradient"/>
    <linearGradient id="linear-gradient-4" x1="335.03851" y1="735.17868" x2="473.96147" y2="735.17868" xlink:href="#linear-gradient"/>
    <linearGradient id="linear-gradient-5" x1="438.49409" y1="736.62525" x2="458.7459" y2="736.62525" xlink:href="#linear-gradient"/>
    <linearGradient id="linear-gradient-6" x1="335.03851" y1="697.46561" x2="473.96147" y2="697.46561" xlink:href="#linear-gradient"/>
    <linearGradient id="linear-gradient-7" x1="438.49409" y1="698.91218" x2="458.7459" y2="698.91218" xlink:href="#linear-gradient"/>
    <linearGradient id="linear-gradient-8" x1="335.03851" y1="659.75254" x2="473.96147" y2="659.75254" xlink:href="#linear-gradient"/>
    <linearGradient id="linear-gradient-9" x1="438.49409" y1="661.19911" x2="458.7459" y2="661.19911" xlink:href="#linear-gradient"/>
    <linearGradient id="linear-gradient-10" x1="335.03851" y1="772.89178" x2="473.96147" y2="772.89178" xlink:href="#linear-gradient"/>
    <linearGradient id="linear-gradient-11" x1="438.49409" y1="774.33835" x2="458.7459" y2="774.33835" xlink:href="#linear-gradient"/>
    <linearGradient id="linear-gradient-12" x1="620.09076" y1="691.30344" x2="714.30924" y2="691.30344" xlink:href="#linear-gradient"/>
    <linearGradient id="linear-gradient-13" x1="597.73852" y1="622.03947" x2="736.66148" y2="622.03947" xlink:href="#linear-gradient"/>
    <linearGradient id="linear-gradient-14" x1="701.19411" y1="623.48604" x2="721.44592" y2="623.48604" xlink:href="#linear-gradient"/>
    <linearGradient id="linear-gradient-15" x1="597.73852" y1="735.17868" x2="736.66148" y2="735.17868" xlink:href="#linear-gradient"/>
    <linearGradient id="linear-gradient-16" x1="701.19411" y1="736.62525" x2="721.44592" y2="736.62525" xlink:href="#linear-gradient"/>
    <linearGradient id="linear-gradient-17" x1="597.73852" y1="697.46561" x2="736.66148" y2="697.46561" xlink:href="#linear-gradient"/>
    <linearGradient id="linear-gradient-18" x1="701.19411" y1="698.91218" x2="721.44592" y2="698.91218" xlink:href="#linear-gradient"/>
    <linearGradient id="linear-gradient-19" x1="597.73852" y1="659.75254" x2="736.66148" y2="659.75254" xlink:href="#linear-gradient"/>
    <linearGradient id="linear-gradient-20" x1="701.19411" y1="661.19911" x2="721.44592" y2="661.19911" xlink:href="#linear-gradient"/>
    <linearGradient id="linear-gradient-21" x1="597.73852" y1="772.89178" x2="736.66148" y2="772.89178" xlink:href="#linear-gradient"/>
    <linearGradient id="linear-gradient-22" x1="701.19411" y1="774.33835" x2="721.44592" y2="774.33835" xlink:href="#linear-gradient"/>
    <linearGradient id="linear-gradient-23" x1="882.89075" y1="691.30344" x2="977.10923" y2="691.30344" xlink:href="#linear-gradient"/>
    <linearGradient id="linear-gradient-24" x1="860.53851" y1="622.03947" x2="999.46147" y2="622.03947" xlink:href="#linear-gradient"/>
    <linearGradient id="linear-gradient-25" x1="963.99409" y1="623.48604" x2="984.2459" y2="623.48604" xlink:href="#linear-gradient"/>
    <linearGradient id="linear-gradient-26" x1="860.53851" y1="735.17868" x2="999.46147" y2="735.17868" xlink:href="#linear-gradient"/>
    <linearGradient id="linear-gradient-27" x1="963.99409" y1="736.62525" x2="984.2459" y2="736.62525" xlink:href="#linear-gradient"/>
    <linearGradient id="linear-gradient-28" x1="860.53851" y1="697.46561" x2="999.46147" y2="697.46561" xlink:href="#linear-gradient"/>
    <linearGradient id="linear-gradient-29" x1="963.99409" y1="698.91218" x2="984.2459" y2="698.91218" xlink:href="#linear-gradient"/>
    <linearGradient id="linear-gradient-30" x1="860.53851" y1="659.75254" x2="999.46147" y2="659.75254" xlink:href="#linear-gradient"/>
    <linearGradient id="linear-gradient-31" x1="963.99409" y1="661.19911" x2="984.2459" y2="661.19911" xlink:href="#linear-gradient"/>
    <linearGradient id="linear-gradient-32" x1="860.53851" y1="772.89178" x2="999.46147" y2="772.89178" xlink:href="#linear-gradient"/>
    <linearGradient id="linear-gradient-33" x1="963.99409" y1="774.33835" x2="984.2459" y2="774.33835" xlink:href="#linear-gradient"/>
    <linearGradient id="linear-gradient-34" x1="1145.59076" y1="691.30344" x2="1239.80924" y2="691.30344" xlink:href="#linear-gradient"/>
    <linearGradient id="linear-gradient-35" x1="1123.23852" y1="622.03947" x2="1262.16148" y2="622.03947" xlink:href="#linear-gradient"/>
    <linearGradient id="linear-gradient-36" x1="1226.69411" y1="623.48604" x2="1246.94592" y2="623.48604" xlink:href="#linear-gradient"/>
    <linearGradient id="linear-gradient-37" x1="1123.23852" y1="735.17868" x2="1262.16148" y2="735.17868" xlink:href="#linear-gradient"/>
    <linearGradient id="linear-gradient-38" x1="1226.69411" y1="736.62525" x2="1246.94592" y2="736.62525" xlink:href="#linear-gradient"/>
    <linearGradient id="linear-gradient-39" x1="1123.23852" y1="697.46561" x2="1262.16148" y2="697.46561" xlink:href="#linear-gradient"/>
    <linearGradient id="linear-gradient-40" x1="1226.69411" y1="698.91218" x2="1246.94592" y2="698.91218" xlink:href="#linear-gradient"/>
    <linearGradient id="linear-gradient-41" x1="1123.23852" y1="659.75254" x2="1262.16148" y2="659.75254" xlink:href="#linear-gradient"/>
    <linearGradient id="linear-gradient-42" x1="1226.69411" y1="661.19911" x2="1246.94592" y2="661.19911" xlink:href="#linear-gradient"/>
    <linearGradient id="linear-gradient-43" x1="1123.23852" y1="772.89178" x2="1262.16148" y2="772.89178" xlink:href="#linear-gradient"/>
    <linearGradient id="linear-gradient-44" x1="1226.69411" y1="774.33835" x2="1246.94592" y2="774.33835" xlink:href="#linear-gradient"/>
  </defs>
  <title>kubernetes</title>
  <g id="Layer_2" data-name="Layer 2">
    <g id="Layer_1-2" data-name="Layer 1">
      <g>
        <g>
          <rect class="cls-1" x="0.25" y="0.25" width="1462.3001" height="856.2"/>
          <rect class="cls-2" x="0.25" y="0.25" width="1462.3001" height="856.2"/>
        </g>
        <rect class="cls-3" x="265.65001" y="438.65001" width="1108.60004" height="329.39996"/>
        <rect class="cls-4" x="266.05001" y="88.55" width="293.60001" height="121.4"/>
        <rect class="cls-4" x="603.74999" y="88.55" width="293.60004" height="121.4"/>
        <rect class="cls-4" x="941.45" y="88.55" width="293.59998" height="121.4"/>
        <rect class="cls-3" x="265.65001" y="283.15001" width="1108.60004" height="78.10001"/>
        <rect class="cls-3" x="66.45" y="283.95" width="120.2" height="78.10001"/>
        <g>
          <line class="cls-5" x1="412.84999" y1="210.05001" x2="412.84999" y2="274.45"/>
          <polygon class="cls-6" points="406.75 272.75 412.85 283.15 418.85 272.75 406.75 272.75"/>
        </g>
        <g>
          <line class="cls-5" x1="750.54998" y1="210.25" x2="750.54998" y2="274.74999"/>
          <polygon class="cls-6" points="744.55 272.95 750.55 283.45 756.65 272.95 744.55 272.95"/>
        </g>
        <g>
          <line class="cls-5" x1="1088.25005" y1="210.25" x2="1088.25005" y2="274.74999"/>
          <polygon class="cls-6" points="1082.25 272.95 1088.25 283.45 1094.35 272.95 1082.25 272.95"/>
        </g>
        <g>
          <line class="cls-5" x1="1088.25005" y1="439.55001" x2="1088.25005" y2="370.65001"/>
          <polygon class="cls-6" points="1094.35 372.35 1088.25 361.95 1082.25 372.35 1094.35 372.35"/>
        </g>
        <g>
          <line class="cls-5" x1="750.54998" y1="439.55001" x2="750.54998" y2="370.65001"/>
          <polygon class="cls-6" points="756.65 372.35 750.55 361.95 744.55 372.35 756.65 372.35"/>
        </g>
        <g>
          <line class="cls-5" x1="412.84999" y1="438.74999" x2="412.84999" y2="369.84999"/>
          <polygon class="cls-6" points="418.85 371.65 412.85 361.15 406.75 371.65 418.85 371.65"/>
        </g>
        <g>
          <g>
            <line class="cls-5" x1="186.65" y1="331.45" x2="256.95" y2="331.45"/>
            <polygon class="cls-6" points="255.15 337.55 265.65 331.45 255.15 325.35 255.15 337.55"/>
          </g>
          <g>
            <line class="cls-5" x1="265.65001" y1="312.24999" x2="195.34999" y2="312.24999"/>
            <polygon class="cls-6" points="197.15 306.25 186.65 312.25 197.15 318.35 197.15 306.25"/>
          </g>
        </g>
        <g class="cls-7">
          <path class="cls-8" d="M431.9207,248.63311v4.95117h-2.03418V240.98076h4.88867c2.90723,0,4.46582,1.4668,4.46582,3.82617,0,2.3584-1.55859,3.82617-4.46582,3.82617Zm0-5.73535v3.81738h2.80078c1.64648,0,2.40332-.6123,2.40332-1.9082,0-1.29687-.75684-1.90918-2.40332-1.90918Z"/>
          <path class="cls-8" d="M447.70781,253.58428h-2.53809l-4.80762-12.60352H442.532l3.9248,10.542,3.95215-10.542h2.10742Z"/>
          <path class="cls-8" d="M465.3582,243.38408l-1.70117,1.13477a4.17977,4.17977,0,0,0-3.51953-1.81836,4.58354,4.58354,0,0,0,0,9.16406,4.1438,4.1438,0,0,0,3.50977-1.80957l1.65723,1.21582a6.12954,6.12954,0,0,1-5.167,2.54785,6.53644,6.53644,0,1,1,0-13.07227A5.99669,5.99669,0,0,1,465.3582,243.38408Z"/>
        </g>
        <g class="cls-7">
          <path class="cls-8" d="M768.9207,248.63311v4.95117h-2.03418V240.98076h4.88867c2.90723,0,4.46582,1.4668,4.46582,3.82617,0,2.3584-1.55859,3.82617-4.46582,3.82617Zm0-5.73535v3.81738h2.80078c1.64648,0,2.40332-.6123,2.40332-1.9082,0-1.29687-.75684-1.90918-2.40332-1.90918Z"/>
          <path class="cls-8" d="M784.70781,253.58428h-2.53809l-4.80762-12.60352H779.532l3.9248,10.542,3.95215-10.542h2.10742Z"/>
          <path class="cls-8" d="M802.3582,243.38408l-1.70117,1.13477a4.17977,4.17977,0,0,0-3.51953-1.81836,4.58354,4.58354,0,0,0,0,9.16406,4.1438,4.1438,0,0,0,3.50977-1.80957l1.65723,1.21582a6.12954,6.12954,0,0,1-5.167,2.54785,6.53644,6.53644,0,1,1,0-13.07227A5.99669,5.99669,0,0,1,802.3582,243.38408Z"/>
        </g>
        <g class="cls-7">
          <path class="cls-8" d="M1106.9207,248.63311v4.95117h-2.03418V240.98076h4.88867c2.90723,0,4.46582,1.4668,4.46582,3.82617,0,2.3584-1.55859,3.82617-4.46582,3.82617Zm0-5.73535v3.81738h2.80078c1.64648,0,2.40332-.6123,2.40332-1.9082,0-1.29687-.75684-1.90918-2.40332-1.90918Z"/>
          <path class="cls-8" d="M1122.70781,253.58428h-2.53809l-4.80762-12.60352h2.16992l3.92481,10.542,3.95215-10.542h2.10742Z"/>
          <path class="cls-8" d="M1140.3582,243.38408l-1.70117,1.13477a4.17977,4.17977,0,0,0-3.51953-1.81836,4.58354,4.58354,0,0,0,0,9.16406,4.1438,4.1438,0,0,0,3.50977-1.80957l1.65723,1.21582a6.12954,6.12954,0,0,1-5.167,2.54785,6.53644,6.53644,0,1,1,0-13.07227A5.99669,5.99669,0,0,1,1140.3582,243.38408Z"/>
        </g>
        <g class="cls-7">
          <path class="cls-8" d="M431.9207,404.63311v4.95117h-2.03418V396.98076h4.88867c2.90723,0,4.46582,1.4668,4.46582,3.82617,0,2.3584-1.55859,3.82617-4.46582,3.82617Zm0-5.73535v3.81738h2.80078c1.64648,0,2.40332-.6123,2.40332-1.9082,0-1.29687-.75684-1.90918-2.40332-1.90918Z"/>
          <path class="cls-8" d="M447.70781,409.58428h-2.53809l-4.80762-12.60352H442.532l3.9248,10.542,3.95215-10.542h2.10742Z"/>
          <path class="cls-8" d="M458.48906,409.58428h-1.95312v-9.96582l-3.20508,1.377v-2.03418l5.1582-2.17871Z"/>
        </g>
        <g class="cls-7">
          <path class="cls-8" d="M768.9207,404.63311v4.95117h-2.03418V396.98076h4.88867c2.90723,0,4.46582,1.4668,4.46582,3.82617,0,2.3584-1.55859,3.82617-4.46582,3.82617Zm0-5.73535v3.81738h2.80078c1.64648,0,2.40332-.6123,2.40332-1.9082,0-1.29687-.75684-1.90918-2.40332-1.90918Z"/>
          <path class="cls-8" d="M784.70781,409.58428h-2.53809l-4.80762-12.60352H779.532l3.9248,10.542,3.95215-10.542h2.10742Z"/>
          <path class="cls-8" d="M790.493,398.87139a4.725,4.725,0,0,1,4.02344-2.10742,3.86707,3.86707,0,0,1,4.17773,4.05176,5.16426,5.16426,0,0,1-1.67383,3.5293l-3.16016,3.38477h5.17578v1.85449h-8.06641V408.054l4.55566-4.84375a3.49169,3.49169,0,0,0,1.126-2.40332,2.06209,2.06209,0,0,0-2.1875-2.17871,3.09969,3.09969,0,0,0-2.57617,1.39551Z"/>
        </g>
        <g class="cls-7">
          <path class="cls-8" d="M1106.9207,404.63311v4.95117h-2.03418V396.98076h4.88867c2.90723,0,4.46582,1.4668,4.46582,3.82617,0,2.3584-1.55859,3.82617-4.46582,3.82617Zm0-5.73535v3.81738h2.80078c1.64648,0,2.40332-.6123,2.40332-1.9082,0-1.29687-.75684-1.90918-2.40332-1.90918Z"/>
          <path class="cls-8" d="M1122.70781,409.58428h-2.53809l-4.80762-12.60352h2.16992l3.92481,10.542,3.95215-10.542h2.10742Z"/>
          <path class="cls-8" d="M1136.83867,400.36553a3.07148,3.07148,0,0,1-1.918,2.86328,3.13937,3.13937,0,0,1,2.20508,2.92578c0,2.457-2.16894,3.64551-4.45508,3.64551a5.46157,5.46157,0,0,1-4.33984-1.7998l1.252-1.30566a4.20717,4.20717,0,0,0,3.042,1.28711c1.37793,0,2.458-.62109,2.458-1.918,0-1.26855-1.22461-1.93555-2.72852-1.93555h-1.52148v-1.791h1.51367c1.35938,0,2.457-.6123,2.457-1.873,0-1.20605-1.07129-1.88086-2.377-1.88086a3.10049,3.10049,0,0,0-2.54687,1.35938l-1.4043-1.19727a4.63214,4.63214,0,0,1,4.07813-1.98145C1135.11895,396.764,1136.83867,398.19561,1136.83867,400.36553Z"/>
        </g>
        <g class="cls-7">
          <path d="M755.74785,322.0877h-2.05371v7.96875h-2.25781V312.09063h2.25781v7.86621h2.08008l7.28906-7.86621h2.92578l-8.35449,8.80371,8.90527,9.16211h-3.0791Z"/>
          <path d="M779.26445,324.949c0,3.68262-2.64453,5.36426-5.55664,5.36426-2.93945,0-5.57031-1.68164-5.57031-5.36426v-7.084H770.243v6.8916c0,2.48926,1.47461,3.59277,3.46484,3.59277,1.97559,0,3.45117-1.10352,3.45117-3.59277V317.865h2.10547Z"/>
          <path d="M796.06719,323.96074a6.09112,6.09112,0,0,1-6.0957,6.35254,5.35671,5.35671,0,0,1-4.29883-1.88672v1.62988h-2.0918V311.57793h2.0918v7.917a5.35906,5.35906,0,0,1,4.29883-1.88574A6.09086,6.09086,0,0,1,796.06719,323.96074Zm-10.52246,0a4.18736,4.18736,0,1,0,4.18262-4.376A4.14841,4.14841,0,0,0,785.54473,323.96074Z"/>
          <path d="M810.45781,323.92266c0,.26953-.02539.55176-.03809.78223h-9.58594a3.973,3.973,0,0,0,4.14551,3.77344,5.72689,5.72689,0,0,0,3.75977-1.4502l1.11621,1.4375a6.93455,6.93455,0,0,1-5.00488,1.84766,5.98017,5.98017,0,0,1-6.18555-6.35254c0-3.74707,2.55371-6.35156,6.05664-6.35156C808.0457,317.60918,810.43242,320.18828,810.45781,323.92266Zm-9.59863-.91113h7.45605a3.63678,3.63678,0,0,0-3.63184-3.542A3.78719,3.78719,0,0,0,800.85918,323.01152Z"/>
          <path d="M821.84648,318.00664l-.51367,2.06641a4.75879,4.75879,0,0,0-2.0918-.47559c-1.86133,0-3.16992,1.4248-3.16992,3.6709v6.78809h-2.0918V317.865h2.06641v1.60449a4.28582,4.28582,0,0,1,3.56738-1.86035A5.47148,5.47148,0,0,1,821.84648,318.00664Z"/>
          <path d="M835.88945,322.48516v7.57129H833.784v-6.8916c0-2.24512-1.23145-3.56738-3.34863-3.56738a3.46524,3.46524,0,0,0-3.60645,3.61914v6.83984h-2.0918V317.865h2.0791v1.5918a4.806,4.806,0,0,1,3.99121-1.84766A4.731,4.731,0,0,1,835.88945,322.48516Z"/>
          <path d="M851.075,323.92266c0,.26953-.02539.55176-.03809.78223H841.451a3.973,3.973,0,0,0,4.14551,3.77344,5.72689,5.72689,0,0,0,3.75977-1.4502l1.11621,1.4375a6.93455,6.93455,0,0,1-5.00488,1.84766,5.98017,5.98017,0,0,1-6.18555-6.35254c0-3.74707,2.55371-6.35156,6.05664-6.35156C848.66289,317.60918,851.04961,320.18828,851.075,323.92266Zm-9.59863-.91113h7.45605a3.63678,3.63678,0,0,0-3.63184-3.542A3.78719,3.78719,0,0,0,841.47637,323.01152Z"/>
          <path d="M862.7459,319.77715h-5.12012v5.94141c0,1.83594.97461,2.63086,2.29688,2.63086a4.53868,4.53868,0,0,0,2.49023-.82129l.9873,1.5791a6.141,6.141,0,0,1-3.65723,1.20605c-2.64355,0-4.22168-1.4502-4.22168-4.55566v-5.98047H852.9168V317.865h2.60449v-3.82422h2.10449V317.865h5.12012Z"/>
          <path d="M876.95586,323.92266c0,.26953-.02539.55176-.03906.78223h-9.58594a3.973,3.973,0,0,0,4.14551,3.77344,5.725,5.725,0,0,0,3.75977-1.4502l1.11621,1.4375a6.93231,6.93231,0,0,1-5.00391,1.84766,5.98017,5.98017,0,0,1-6.18555-6.35254c0-3.74707,2.55273-6.35156,6.05664-6.35156C874.54375,317.60918,876.93047,320.18828,876.95586,323.92266Zm-9.59863-.91113h7.45605a3.63825,3.63825,0,0,0-3.63281-3.542A3.78629,3.78629,0,0,0,867.35723,323.01152Z"/>
          <path d="M888.69023,320.573a7.58694,7.58694,0,0,0-3.92676-1.12891c-1.66895,0-2.74707.70508-2.74707,1.80957,0,.97461.88672,1.42383,2.36133,1.60352l1.41211.17969c2.5918.34668,4.11914,1.4375,4.11914,3.45215,0,2.32227-2.07812,3.82422-5.40234,3.82422a8.71882,8.71882,0,0,1-5.13281-1.56543l.97461-1.56641a6.35973,6.35973,0,0,0,4.1709,1.29688c2.002,0,3.2334-.6543,3.2334-1.86133,0-.89844-.79492-1.46289-2.45117-1.668l-1.41113-.167c-2.7334-.333-4.05469-1.56543-4.05469-3.41309,0-2.33594,1.9375-3.74707,4.90137-3.74707a8.816,8.816,0,0,1,4.86426,1.32129Z"/>
        </g>
        <g>
          <path class="cls-9" d="M376.38555,128.21172h4.01855l4.45605,7.167,4.45508-7.167h4.01953v16.94922H389.6541V134.09551l-4.77051,7.23926h-.09668l-4.72168-7.167v10.99316h-3.67969Z"/>
          <path class="cls-9" d="M397.57109,128.21172h3.72852v16.94922h-3.72852Z"/>
          <path class="cls-9" d="M405.53789,128.21172h3.4375l7.94336,10.43555V128.21172h3.67969v16.94922h-3.17187l-8.209-10.77539v10.77539h-3.67969Z"/>
          <path class="cls-9" d="M424.83672,128.21172h3.72852v16.94922h-3.72852Z"/>
          <path class="cls-9" d="M441.035,145.452a9.24566,9.24566,0,0,1-3.6084-.69043,8.97166,8.97166,0,0,1-2.84473-1.86426,8.33752,8.33752,0,0,1-1.86426-2.76074,8.68877,8.68877,0,0,1-.666-3.40234v-.04785a8.5788,8.5788,0,0,1,.67773-3.40234,8.67284,8.67284,0,0,1,4.73438-4.67285,9.80259,9.80259,0,0,1,7.22754,0,8.96075,8.96075,0,0,1,2.84473,1.86426,8.36969,8.36969,0,0,1,1.86523,2.76074,8.705,8.705,0,0,1,.666,3.40137v.04883a8.56245,8.56245,0,0,1-.67871,3.40234,8.6669,8.6669,0,0,1-4.7334,4.67285A9.33237,9.33237,0,0,1,441.035,145.452Zm.04785-3.43848a5.096,5.096,0,0,0,2.05859-.41211,4.70386,4.70386,0,0,0,1.61035-1.1377,5.36958,5.36958,0,0,0,1.041-1.68262,5.55935,5.55935,0,0,0,.376-2.04687v-.04785a5.65543,5.65543,0,0,0-.376-2.05859,5.08107,5.08107,0,0,0-2.7002-2.84473,4.97,4.97,0,0,0-2.05762-.42383,5.06917,5.06917,0,0,0-2.07031.41211,4.73269,4.73269,0,0,0-1.59863,1.1377,5.36958,5.36958,0,0,0-1.041,1.68262,5.55365,5.55365,0,0,0-.375,2.0459v.04883a5.64583,5.64583,0,0,0,.375,2.05762,5.12105,5.12105,0,0,0,2.6875,2.8457A4.95153,4.95153,0,0,0,441.08281,142.01348Z"/>
          <path class="cls-10" d="M384.05449,156.8377h-4.76758v12.32324h-1.75879V156.8377h-4.77734v-1.66895h11.30371Z"/>
          <path class="cls-10" d="M393.0457,164.38359c0,.21-.02051.42969-.03027.60938h-7.46582a3.09416,3.09416,0,0,0,3.22852,2.93848,4.45933,4.45933,0,0,0,2.92773-1.12891l.86914,1.11914a5.39637,5.39637,0,0,1-3.89746,1.43945,4.95091,4.95091,0,0,1-.09961-9.89453C391.1668,159.4666,393.0252,161.47539,393.0457,164.38359Zm-7.47656-.71h5.80664a2.83148,2.83148,0,0,0-2.82812-2.75781A2.94819,2.94819,0,0,0,385.56914,163.67363Z"/>
          <path class="cls-10" d="M404.47539,163.26445v5.89648h-1.63867v-5.36719a2.46693,2.46693,0,0,0-2.60937-2.77832,2.69882,2.69882,0,0,0-2.80859,2.81836v5.32715h-1.62891v-9.49512H397.409v1.23926a3.74232,3.74232,0,0,1,3.1084-1.43848A3.68443,3.68443,0,0,1,404.47539,163.26445Z"/>
          <path class="cls-10" d="M416.8543,169.16094h-1.63867v-1.26953a4.20206,4.20206,0,0,1-3.34766,1.46973,4.95145,4.95145,0,0,1,0-9.89453,4.17789,4.17789,0,0,1,3.34766,1.47852v-1.2793h1.63867Zm-8.06445-4.74707a3.2658,3.2658,0,1,0,3.26758-3.4082A3.255,3.255,0,0,0,408.78984,164.41387Z"/>
          <path class="cls-10" d="M429.00469,163.26445v5.89648H427.366v-5.36719a2.46647,2.46647,0,0,0-2.60937-2.77832,2.69858,2.69858,0,0,0-2.80762,2.81836v5.32715h-1.62988v-9.49512h1.61914v1.23926a3.7453,3.7453,0,0,1,3.10938-1.43848A3.68415,3.68415,0,0,1,429.00469,163.26445Z"/>
          <path class="cls-10" d="M438.68633,161.15508H434.698V165.783c0,1.42871.75977,2.04883,1.78906,2.04883a3.53852,3.53852,0,0,0,1.93945-.63965l.76953,1.22949a4.78862,4.78862,0,0,1-2.84863.93945c-2.05957,0-3.28809-1.12988-3.28809-3.54883v-4.65723h-2.0293v-1.48926h2.0293V156.6873H434.698v2.97852h3.98828Z"/>
          <path class="cls-10" d="M451.27715,169.16094H449.5877V157.44707l-4.00781,1.71973V157.407l5.69727-2.418Z"/>
        </g>
        <g>
          <path class="cls-9" d="M714.08477,128.21172h4.01953l4.45508,7.167,4.45508-7.167H731.034v16.94922H727.3543V134.09551l-4.77148,7.23926h-.0957l-4.72266-7.167v10.99316h-3.67969Z"/>
          <path class="cls-9" d="M735.27129,128.21172h3.72852v16.94922h-3.72852Z"/>
          <path class="cls-9" d="M743.23711,128.21172h3.43848l7.94238,10.43555V128.21172h3.67969v16.94922h-3.17187l-8.208-10.77539v10.77539h-3.68066Z"/>
          <path class="cls-9" d="M762.53594,128.21172h3.72852v16.94922h-3.72852Z"/>
          <path class="cls-9" d="M778.73516,145.452a9.24219,9.24219,0,0,1-3.6084-.69043,8.96075,8.96075,0,0,1-2.84473-1.86426,8.35487,8.35487,0,0,1-1.86523-2.76074,8.70632,8.70632,0,0,1-.666-3.40234v-.04785a8.56245,8.56245,0,0,1,.67871-3.40234,8.6669,8.6669,0,0,1,4.7334-4.67285,9.80514,9.80514,0,0,1,7.22852,0,8.97166,8.97166,0,0,1,2.84473,1.86426,8.35229,8.35229,0,0,1,1.86426,2.76074,8.705,8.705,0,0,1,.666,3.40137v.04883a8.5788,8.5788,0,0,1-.67773,3.40234,8.67284,8.67284,0,0,1-4.73437,4.67285A9.331,9.331,0,0,1,778.73516,145.452Zm.04785-3.43848a5.09131,5.09131,0,0,0,2.05762-.41211,4.70777,4.70777,0,0,0,1.61133-1.1377,5.3875,5.3875,0,0,0,1.041-1.68262,5.55881,5.55881,0,0,0,.375-2.04687v-.04785a5.65482,5.65482,0,0,0-.375-2.05859,5.08952,5.08952,0,0,0-2.7002-2.84473,4.97323,4.97323,0,0,0-2.05762-.42383,5.06589,5.06589,0,0,0-2.07031.41211,4.73269,4.73269,0,0,0-1.59863,1.1377,5.35178,5.35178,0,0,0-1.041,1.68262,5.53426,5.53426,0,0,0-.376,2.0459v.04883a5.62606,5.62606,0,0,0,.376,2.05762,5.11243,5.11243,0,0,0,2.6875,2.8457A4.94832,4.94832,0,0,0,778.783,142.01348Z"/>
          <path class="cls-10" d="M720.45391,156.8377h-4.76758v12.32324h-1.75879V156.8377H709.1502v-1.66895h11.30371Z"/>
          <path class="cls-10" d="M729.44414,164.38359c0,.21-.01953.42969-.0293.60938H721.949a3.09331,3.09331,0,0,0,3.22754,2.93848,4.46186,4.46186,0,0,0,2.92871-1.12891l.87012,1.11914a5.40007,5.40007,0,0,1-3.89844,1.43945,4.95091,4.95091,0,0,1-.09961-9.89453C727.56523,159.4666,729.42461,161.47539,729.44414,164.38359Zm-7.47461-.71h5.80664a2.83358,2.83358,0,0,0-2.8291-2.75781A2.94729,2.94729,0,0,0,721.96953,163.67363Z"/>
          <path class="cls-10" d="M740.87383,163.26445v5.89648h-1.63867v-5.36719a2.46623,2.46623,0,0,0-2.6084-2.77832,2.69858,2.69858,0,0,0-2.80762,2.81836v5.32715h-1.62988v-9.49512h1.61914v1.23926a3.74352,3.74352,0,0,1,3.1084-1.43848A3.68415,3.68415,0,0,1,740.87383,163.26445Z"/>
          <path class="cls-10" d="M753.25469,169.16094H751.615v-1.26953a4.19986,4.19986,0,0,1-3.34863,1.46973,4.95149,4.95149,0,0,1,0-9.89453,4.17573,4.17573,0,0,1,3.34863,1.47852v-1.2793h1.63965Zm-8.06641-4.74707a3.26674,3.26674,0,1,0,3.26855-3.4082A3.25636,3.25636,0,0,0,745.18828,164.41387Z"/>
          <path class="cls-10" d="M765.4041,163.26445v5.89648h-1.63867v-5.36719a2.46668,2.46668,0,0,0-2.6084-2.77832,2.69882,2.69882,0,0,0-2.80859,2.81836v5.32715h-1.62891v-9.49512h1.61914v1.23926a3.74054,3.74054,0,0,1,3.10742-1.43848A3.68391,3.68391,0,0,1,765.4041,163.26445Z"/>
          <path class="cls-10" d="M775.08477,161.15508h-3.9873V165.783c0,1.42871.75977,2.04883,1.78906,2.04883a3.53012,3.53012,0,0,0,1.93848-.63965l.76953,1.22949a4.77866,4.77866,0,0,1-2.84766.93945c-2.05859,0-3.28809-1.12988-3.28809-3.54883v-4.65723h-2.0293v-1.48926h2.0293V156.6873h1.63867v2.97852h3.9873Z"/>
          <path class="cls-10" d="M782.16875,157.29766a4.95326,4.95326,0,0,1,4.31836-2.3291,4.18809,4.18809,0,0,1,4.51758,4.37793,5.71174,5.71174,0,0,1-1.87891,3.9375l-4.01855,4.26758h6.33691v1.60938h-8.8457v-1.3291l5.2373-5.52734a4.26286,4.26286,0,0,0,1.39941-2.96777,2.61237,2.61237,0,0,0-2.78906-2.749,3.56072,3.56072,0,0,0-3.05762,1.69922Z"/>
        </g>
        <g>
          <path class="cls-9" d="M1051.784,128.21172h4.01953l4.45508,7.167,4.45508-7.167h4.01953v16.94922h-3.67969V134.09551l-4.77051,7.23926h-.09668l-4.72168-7.167v10.99316H1051.784Z"/>
          <path class="cls-9" d="M1072.97148,128.21172H1076.7v16.94922h-3.72852Z"/>
          <path class="cls-9" d="M1080.9373,128.21172h3.43848l7.94141,10.43555V128.21172h3.68066v16.94922H1092.826l-8.208-10.77539v10.77539h-3.68066Z"/>
          <path class="cls-9" d="M1100.23516,128.21172h3.72852v16.94922h-3.72852Z"/>
          <path class="cls-9" d="M1116.43438,145.452a9.24077,9.24077,0,0,1-3.60742-.69043,8.96525,8.96525,0,0,1-2.8457-1.86426,8.35229,8.35229,0,0,1-1.86426-2.76074,8.68877,8.68877,0,0,1-.666-3.40234v-.04785a8.54553,8.54553,0,0,1,.67871-3.40234,8.66927,8.66927,0,0,1,4.73242-4.67285,9.33729,9.33729,0,0,1,3.62109-.69043,9.24424,9.24424,0,0,1,3.60742.69043,8.97616,8.97616,0,0,1,2.8457,1.86426,8.33493,8.33493,0,0,1,1.86328,2.76074,8.68743,8.68743,0,0,1,.666,3.40137v.04883a8.5788,8.5788,0,0,1-.67773,3.40234,8.67521,8.67521,0,0,1-4.7334,4.67285A9.33587,9.33587,0,0,1,1116.43438,145.452Zm.04883-3.43848a5.09466,5.09466,0,0,0,2.05762-.41211,4.70386,4.70386,0,0,0,1.61035-1.1377,5.36958,5.36958,0,0,0,1.041-1.68262,5.55881,5.55881,0,0,0,.375-2.04687v-.04785a5.65482,5.65482,0,0,0-.375-2.05859,5.08362,5.08362,0,0,0-2.69922-2.84473,4.97779,4.97779,0,0,0-2.05859-.42383,5.06917,5.06917,0,0,0-2.07031.41211,4.72879,4.72879,0,0,0-1.59766,1.1377,5.33411,5.33411,0,0,0-1.041,1.68262,5.53426,5.53426,0,0,0-.376,2.0459v.04883a5.626,5.626,0,0,0,.376,2.05762,5.10385,5.10385,0,0,0,2.6875,2.8457A4.94512,4.94512,0,0,0,1116.4832,142.01348Z"/>
          <path class="cls-10" d="M1058.06328,156.8377h-4.76758v12.32324h-1.75781V156.8377h-4.77734v-1.66895h11.30273Z"/>
          <path class="cls-10" d="M1067.05449,164.38359c0,.21-.02051.42969-.03027.60938h-7.46484a3.09273,3.09273,0,0,0,3.22754,2.93848,4.4638,4.4638,0,0,0,2.92871-1.12891l.86914,1.11914a5.3986,5.3986,0,0,1-3.89844,1.43945,4.95095,4.95095,0,0,1-.09961-9.89453C1065.17559,159.4666,1067.034,161.47539,1067.05449,164.38359Zm-7.47559-.71h5.80664a2.83211,2.83211,0,0,0-2.82812-2.75781A2.94819,2.94819,0,0,0,1059.57891,163.67363Z"/>
          <path class="cls-10" d="M1078.48418,163.26445v5.89648h-1.63867v-5.36719a2.46668,2.46668,0,0,0-2.6084-2.77832,2.69882,2.69882,0,0,0-2.80859,2.81836v5.32715h-1.62891v-9.49512h1.61914v1.23926a3.74054,3.74054,0,0,1,3.10742-1.43848A3.68443,3.68443,0,0,1,1078.48418,163.26445Z"/>
          <path class="cls-10" d="M1090.86406,169.16094h-1.63867v-1.26953a4.20271,4.20271,0,0,1-3.34863,1.46973,4.95149,4.95149,0,0,1,0-9.89453,4.17853,4.17853,0,0,1,3.34863,1.47852v-1.2793h1.63867Zm-8.06543-4.74707a3.26627,3.26627,0,1,0,3.26855-3.4082A3.25578,3.25578,0,0,0,1082.79863,164.41387Z"/>
          <path class="cls-10" d="M1103.01445,163.26445v5.89648h-1.63867v-5.36719a2.46693,2.46693,0,0,0-2.60937-2.77832,2.69882,2.69882,0,0,0-2.80859,2.81836v5.32715h-1.62891v-9.49512h1.61914v1.23926a3.74232,3.74232,0,0,1,3.1084-1.43848A3.68443,3.68443,0,0,1,1103.01445,163.26445Z"/>
          <path class="cls-10" d="M1112.69512,161.15508h-3.9873V165.783c0,1.42871.75977,2.04883,1.78906,2.04883a3.53533,3.53533,0,0,0,1.93848-.63965l.76953,1.22949a4.784,4.784,0,0,1-2.84863.93945c-2.05859,0-3.28711-1.12988-3.28711-3.54883v-4.65723h-2.0293v-1.48926h2.0293V156.6873h1.63867v2.97852h3.9873Z"/>
          <path class="cls-10" d="M1128.71367,158.84648a3.34393,3.34393,0,0,1-2.11914,3.248,3.45227,3.45227,0,0,1,2.43945,3.29883c0,2.67773-2.35937,3.96777-4.83789,3.96777a5.91269,5.91269,0,0,1-4.60742-1.87891l1.08008-1.13965a4.86653,4.86653,0,0,0,3.48828,1.43945c1.68848,0,3.10742-.79,3.10742-2.459,0-1.56934-1.47852-2.44824-3.29785-2.44824h-1.7998V161.325h1.7998c1.66895,0,2.98828-.7998,2.98828-2.39844,0-1.46875-1.30957-2.37891-2.999-2.37891a3.684,3.684,0,0,0-3.01758,1.56934l-1.21875-1.0293a5.001,5.001,0,0,1,4.34668-2.11914C1126.84453,154.96855,1128.71367,156.53789,1128.71367,158.84648Z"/>
        </g>
        <g>
          <path class="cls-10" d="M114.8377,329.73223h-2.0791l-1.69434-4.20215h-7.46973l-1.68359,4.20215H99.89727l6.26074-15.40234h2.40918Zm-10.50586-6.04H110.327l-2.99219-7.44824Z"/>
          <path class="cls-10" d="M127.82793,324.50664a5.22159,5.22159,0,0,1-5.22559,5.44531,4.592,4.592,0,0,1-3.68555-1.61719v5.79785h-1.793V319.28105h1.793v1.39648a4.595,4.595,0,0,1,3.68555-1.61719A5.22242,5.22242,0,0,1,127.82793,324.50664Zm-9.02051,0a3.59008,3.59008,0,1,0,3.58594-3.752A3.55645,3.55645,0,0,0,118.80742,324.50664Z"/>
          <path class="cls-10" d="M141.54473,324.50664a5.22159,5.22159,0,0,1-5.22559,5.44531,4.592,4.592,0,0,1-3.68555-1.61719v5.79785h-1.793V319.28105h1.793v1.39648a4.595,4.595,0,0,1,3.68555-1.61719A5.22242,5.22242,0,0,1,141.54473,324.50664Zm-9.02051,0a3.59008,3.59008,0,1,0,3.58594-3.752A3.55645,3.55645,0,0,0,132.52422,324.50664Z"/>
          <path class="cls-10" d="M151.59844,321.60234a6.5068,6.5068,0,0,0-3.36621-.96875c-1.43066,0-2.35449.60547-2.35449,1.55176,0,.83594.75879,1.2207,2.02441,1.375l1.21.1543c2.22266.29688,3.53125,1.23145,3.53125,2.959,0,1.99121-1.78223,3.27832-4.63184,3.27832a7.4744,7.4744,0,0,1-4.40039-1.3418l.83594-1.34277a5.44915,5.44915,0,0,0,3.57617,1.11133c1.71582,0,2.77246-.56055,2.77246-1.59473,0-.77051-.68262-1.25391-2.10156-1.43066l-1.21-.14258c-2.34375-.28613-3.47656-1.34277-3.47656-2.92676,0-2.002,1.66113-3.21191,4.20215-3.21191a7.55862,7.55862,0,0,1,4.16992,1.13281Z"/>
        </g>
        <g>
          <rect class="cls-11" x="357.39075" y="527.8085" width="94.21848" height="193.57613"/>
          <g>
            <rect class="cls-12" x="335.78851" y="677.94839" width="137.42296" height="31.82427"/>
            <line class="cls-13" x1="438.49409" y1="692.41396" x2="458.7459" y2="692.41396"/>
          </g>
          <g>
            <rect class="cls-14" x="335.78851" y="564.80919" width="137.42296" height="31.82427"/>
            <line class="cls-15" x1="438.49409" y1="579.27475" x2="458.7459" y2="579.27475"/>
          </g>
          <g>
            <rect class="cls-16" x="335.78851" y="602.52226" width="137.42296" height="31.82427"/>
            <line class="cls-17" x1="438.49409" y1="616.98782" x2="458.7459" y2="616.98782"/>
          </g>
          <g>
            <rect class="cls-18" x="335.78851" y="640.23533" width="137.42296" height="31.82427"/>
            <line class="cls-19" x1="438.49409" y1="654.70089" x2="458.7459" y2="654.70089"/>
          </g>
          <g>
            <rect class="cls-20" x="335.78851" y="527.09609" width="137.42296" height="31.82427"/>
            <line class="cls-21" x1="438.49409" y1="541.56165" x2="458.7459" y2="541.56165"/>
          </g>
        </g>
        <g>
          <rect class="cls-22" x="620.09076" y="527.8085" width="94.21848" height="193.57613"/>
          <g>
            <rect class="cls-23" x="598.48852" y="677.94839" width="137.42296" height="31.82427"/>
            <line class="cls-24" x1="701.19411" y1="692.41396" x2="721.44592" y2="692.41396"/>
          </g>
          <g>
            <rect class="cls-25" x="598.48852" y="564.80919" width="137.42296" height="31.82427"/>
            <line class="cls-26" x1="701.19411" y1="579.27475" x2="721.44592" y2="579.27475"/>
          </g>
          <g>
            <rect class="cls-27" x="598.48852" y="602.52226" width="137.42296" height="31.82427"/>
            <line class="cls-28" x1="701.19411" y1="616.98782" x2="721.44592" y2="616.98782"/>
          </g>
          <g>
            <rect class="cls-29" x="598.48852" y="640.23533" width="137.42296" height="31.82427"/>
            <line class="cls-30" x1="701.19411" y1="654.70089" x2="721.44592" y2="654.70089"/>
          </g>
          <g>
            <rect class="cls-31" x="598.48852" y="527.09609" width="137.42296" height="31.82427"/>
            <line class="cls-32" x1="701.19411" y1="541.56165" x2="721.44592" y2="541.56165"/>
          </g>
        </g>
        <g>
          <rect class="cls-33" x="882.89075" y="527.8085" width="94.21848" height="193.57613"/>
          <g>
            <rect class="cls-34" x="861.28851" y="677.94839" width="137.42296" height="31.82427"/>
            <line class="cls-35" x1="963.99409" y1="692.41396" x2="984.2459" y2="692.41396"/>
          </g>
          <g>
            <rect class="cls-36" x="861.28851" y="564.80919" width="137.42296" height="31.82427"/>
            <line class="cls-37" x1="963.99409" y1="579.27475" x2="984.2459" y2="579.27475"/>
          </g>
          <g>
            <rect class="cls-38" x="861.28851" y="602.52226" width="137.42296" height="31.82427"/>
            <line class="cls-39" x1="963.99409" y1="616.98782" x2="984.2459" y2="616.98782"/>
          </g>
          <g>
            <rect class="cls-40" x="861.28851" y="640.23533" width="137.42296" height="31.82427"/>
            <line class="cls-41" x1="963.99409" y1="654.70089" x2="984.2459" y2="654.70089"/>
          </g>
          <g>
            <rect class="cls-42" x="861.28851" y="527.09609" width="137.42296" height="31.82427"/>
            <line class="cls-43" x1="963.99409" y1="541.56165" x2="984.2459" y2="541.56165"/>
          </g>
        </g>
        <g>
          <rect class="cls-44" x="1145.59076" y="527.8085" width="94.21848" height="193.57613"/>
          <g>
            <rect class="cls-45" x="1123.98852" y="677.94839" width="137.42296" height="31.82427"/>
            <line class="cls-46" x1="1226.69411" y1="692.41396" x2="1246.94592" y2="692.41396"/>
          </g>
          <g>
            <rect class="cls-47" x="1123.98852" y="564.80919" width="137.42296" height="31.82427"/>
            <line class="cls-48" x1="1226.69411" y1="579.27475" x2="1246.94592" y2="579.27475"/>
          </g>
          <g>
            <rect class="cls-49" x="1123.98852" y="602.52226" width="137.42296" height="31.82427"/>
            <line class="cls-50" x1="1226.69411" y1="616.98782" x2="1246.94592" y2="616.98782"/>
          </g>
          <g>
            <rect class="cls-51" x="1123.98852" y="640.23533" width="137.42296" height="31.82427"/>
            <line class="cls-52" x1="1226.69411" y1="654.70089" x2="1246.94592" y2="654.70089"/>
          </g>
          <g>
            <rect class="cls-53" x="1123.98852" y="527.09609" width="137.42296" height="31.82427"/>
            <line class="cls-54" x1="1226.69411" y1="541.56165" x2="1246.94592" y2="541.56165"/>
          </g>
        </g>
        <g>
          <path class="cls-10" d="M689.658,488.73223H678.72246V473.32988h10.82617v1.81543H680.659v4.918h8.60352v1.82617H680.659v5.02734h8.999Z"/>
          <path class="cls-10" d="M698.22637,483.3748l4.13672,5.35742h-2.21191l-3.14648-4.01562-3.10156,4.01563h-2.10156l4.125-5.33594-4.02637-5.11523h2.2002l3.00391,3.86133,3.02539-3.86133h2.123Z"/>
          <path class="cls-10" d="M714.15508,488.73223h-1.80469v-1.39746a4.62165,4.62165,0,0,1-3.68555,1.61719,5.45044,5.45044,0,0,1,0-10.8916,4.59643,4.59643,0,0,1,3.68555,1.62891v-1.4082h1.80469Zm-8.87793-5.22559a3.59522,3.59522,0,1,0,3.59668-3.752A3.58372,3.58372,0,0,0,705.27715,483.50664Z"/>
          <path class="cls-10" d="M728.66387,483.50664a5.22159,5.22159,0,0,1-5.22559,5.44531,4.592,4.592,0,0,1-3.68555-1.61719v1.39746h-1.793v-15.8418h1.793v6.78711a4.595,4.595,0,0,1,3.68555-1.61719A5.22242,5.22242,0,0,1,728.66387,483.50664Zm-9.02148,0a3.59008,3.59008,0,1,0,3.58691-3.752A3.55722,3.55722,0,0,0,719.64238,483.50664Z"/>
          <path class="cls-10" d="M732.55645,493.18828h-1.99121l3.86133-6.68945-4.76367-8.21777h2.01367l3.7627,6.4248,3.5752-6.4248h1.98047Z"/>
          <path class="cls-10" d="M750.47637,479.91973h-4.38965v5.09375c0,1.57324.83594,2.25586,1.96875,2.25586a3.89207,3.89207,0,0,0,2.13477-.7041l.84766,1.35254a5.26713,5.26713,0,0,1-3.13574,1.03418c-2.2666,0-3.62012-1.24316-3.62012-3.90527v-5.127h-2.23242v-1.63867H744.282v-3.2793h1.80469v3.2793h4.38965Z"/>
          <path class="cls-10" d="M762.65313,483.47344c0,.23145-.02148.47266-.03223.6709h-8.21875a3.40531,3.40531,0,0,0,3.55371,3.23438,4.909,4.909,0,0,0,3.22363-1.24316l.957,1.23242a5.94454,5.94454,0,0,1-4.291,1.584,5.44981,5.44981,0,0,1-.10937-10.8916C760.58477,478.06035,762.63164,480.27227,762.65313,483.47344Zm-8.22852-.78125h6.3916a3.11763,3.11763,0,0,0-3.11328-3.03613A3.24507,3.24507,0,0,0,754.42461,482.69219Z"/>
          <path class="cls-10" d="M772.70684,480.60234a6.5068,6.5068,0,0,0-3.36621-.96875c-1.43066,0-2.35449.60547-2.35449,1.55176,0,.83594.75879,1.2207,2.02441,1.375l1.21.1543c2.22266.29688,3.53125,1.23145,3.53125,2.959,0,1.99121-1.78223,3.27832-4.63184,3.27832a7.4744,7.4744,0,0,1-4.40039-1.3418l.83594-1.34277a5.44915,5.44915,0,0,0,3.57617,1.11133c1.71582,0,2.77246-.56055,2.77246-1.59473,0-.77051-.68262-1.25391-2.10156-1.43066l-1.21-.14258c-2.34375-.28613-3.47656-1.34277-3.47656-2.92676,0-2.002,1.66113-3.21191,4.20215-3.21191a7.55862,7.55862,0,0,1,4.16992,1.13281Z"/>
          <path class="cls-10" d="M792.74883,483.50664a5.52894,5.52894,0,1,1-5.5332-5.44629A5.36241,5.36241,0,0,1,792.74883,483.50664Zm-9.21875,0a3.68613,3.68613,0,1,0,3.68555-3.752A3.6168,3.6168,0,0,0,783.53008,483.50664Z"/>
          <path class="cls-10" d="M802.46172,479.91973h-4.01562v8.8125h-1.80469v-8.8125h-2.32129v-1.63867h2.32129v-1.78223c0-2.18945,1.01172-3.8291,3.47656-3.8291a5.42876,5.42876,0,0,1,2.87109.78125l-.64844,1.50684a4.28444,4.28444,0,0,0-2.10156-.60449c-1.24316,0-1.793.792-1.793,2.14551v1.78223h4.01563Z"/>
          <path class="cls-10" d="M821.20586,476.366a8.06476,8.06476,0,0,0-4.56641-1.41895c-2.25488,0-3.86133,1.0127-3.86133,2.67383,0,1.39648,1.17773,2.1123,3.4873,2.39844l1.35352.165c2.60742.31836,4.84082,1.375,4.84082,4.0918,0,3.07031-2.7832,4.67578-6.11719,4.67578a9.97632,9.97632,0,0,1-6.07227-2.002l1.05566-1.54a8.23029,8.23029,0,0,0,5.0166,1.70508c2.2998,0,4.10352-.93555,4.10352-2.67383,0-1.42969-1.28711-2.1123-3.68555-2.40918l-1.42969-.17578c-2.541-.30762-4.56641-1.48535-4.56641-4.11426,0-2.9707,2.64063-4.63184,5.88672-4.63184a9.43424,9.43424,0,0,1,5.54492,1.68262Z"/>
          <path class="cls-10" d="M832.61211,479.91973h-4.38965v5.09375c0,1.57324.83594,2.25586,1.96973,2.25586a3.89149,3.89149,0,0,0,2.13379-.7041l.84668,1.35254a5.26176,5.26176,0,0,1-3.13477,1.03418c-2.2666,0-3.62012-1.24316-3.62012-3.90527v-5.127h-2.2334v-1.63867h2.2334v-3.2793h1.80469v3.2793h4.38965Z"/>
          <path class="cls-10" d="M845.73516,483.50664a5.52894,5.52894,0,1,1-5.5332-5.44629A5.36241,5.36241,0,0,1,845.73516,483.50664Zm-9.21875,0a3.68613,3.68613,0,1,0,3.68555-3.752A3.6168,3.6168,0,0,0,836.51641,483.50664Z"/>
          <path class="cls-10" d="M855.492,478.40215l-.44043,1.77051a4.09006,4.09006,0,0,0-1.793-.40625c-1.5957,0-2.71777,1.2207-2.71777,3.14551v5.82031h-1.793V478.28105h1.77148v1.375a3.67259,3.67259,0,0,1,3.05762-1.5957A4.68869,4.68869,0,0,1,855.492,478.40215Z"/>
          <path class="cls-10" d="M867.449,488.73223h-1.80371v-1.39746a4.62591,4.62591,0,0,1-3.68555,1.61719,5.4504,5.4504,0,0,1,0-10.8916,4.60064,4.60064,0,0,1,3.68555,1.62891v-1.4082H867.449Zm-8.87793-5.22559a3.59522,3.59522,0,1,0,3.59766-3.752A3.58392,3.58392,0,0,0,858.57109,483.50664Z"/>
          <path class="cls-10" d="M879.2293,479.7v-1.41895H881.034v9.72461c0,3.37793-2.25586,5.30273-5.55566,5.30273a7.27414,7.27414,0,0,1-4.37891-1.35254l.78125-1.45215a6.18965,6.18965,0,0,0,3.59766,1.166c2.24414,0,3.751-1.26562,3.751-3.58691V487.159a4.36914,4.36914,0,0,1-3.59766,1.62793,5.3669,5.3669,0,0,1,0-10.72656A4.37679,4.37679,0,0,1,879.2293,479.7Zm-6.93066,3.71875a3.5445,3.5445,0,1,0,3.543-3.66406A3.49082,3.49082,0,0,0,872.29863,483.41875Z"/>
          <path class="cls-10" d="M894.157,483.47344c0,.23145-.02246.47266-.0332.6709h-8.21875a3.40589,3.40589,0,0,0,3.55371,3.23438,4.90512,4.90512,0,0,0,3.22363-1.24316l.957,1.23242a5.94231,5.94231,0,0,1-4.29,1.584,5.44984,5.44984,0,0,1-.11035-10.8916C892.08867,478.06035,894.13457,480.27227,894.157,483.47344Zm-8.22949-.78125h6.3916a3.11763,3.11763,0,0,0-3.11328-3.03613A3.24637,3.24637,0,0,0,885.92754,482.69219Z"/>
          <path class="cls-10" d="M909.45684,473.32988c3.47656,0,5.39063,1.5625,5.39063,4.36816,0,2.67285-2.0791,4.38965-5.37988,4.38965h-.12109l5.42383,6.64453h-2.39844l-5.292-6.64453h-1.80371v6.64453h-1.93652V473.32988Zm-4.18066,1.81543V480.327h4.13672c2.26563,0,3.4209-.90234,3.4209-2.62891,0-1.70605-1.1875-2.55273-3.4209-2.55273Z"/>
          <path class="cls-10" d="M927.55254,488.73223h-1.80469v-1.39746a4.62307,4.62307,0,0,1-3.68555,1.61719,5.45044,5.45044,0,0,1,0-10.8916,4.59783,4.59783,0,0,1,3.68555,1.62891v-1.4082h1.80469Zm-8.87793-5.22559a3.59522,3.59522,0,1,0,3.59668-3.752A3.58314,3.58314,0,0,0,918.67461,483.50664Z"/>
          <path class="cls-10" d="M939.87188,479.71074l-1.15527,1.22168a3.83456,3.83456,0,0,0-2.77246-1.17773,3.76387,3.76387,0,0,0,0,7.51465,4.0579,4.0579,0,0,0,2.81641-1.19922l1.11133,1.24316a5.08538,5.08538,0,0,1-3.88379,1.63867,5.44585,5.44585,0,0,1,0-10.8916A5.0415,5.0415,0,0,1,939.87188,479.71074Z"/>
          <path class="cls-10" d="M944.42461,482.46172h1.43066l3.88379-4.18066h2.26563l-4.66406,4.92871,4.73047,5.52246h-2.27734l-3.94922-4.64258h-1.41992v4.64258h-1.793v-15.8418h1.793Z"/>
          <path class="cls-10" d="M961.37676,480.60234a6.5068,6.5068,0,0,0-3.36621-.96875c-1.43066,0-2.35449.60547-2.35449,1.55176,0,.83594.75879,1.2207,2.02441,1.375l1.21.1543c2.22266.29688,3.53125,1.23145,3.53125,2.959,0,1.99121-1.78223,3.27832-4.63184,3.27832a7.4744,7.4744,0,0,1-4.40039-1.3418l.83594-1.34277a5.44915,5.44915,0,0,0,3.57617,1.11133c1.71582,0,2.77148-.56055,2.77148-1.59473,0-.77051-.68164-1.25391-2.10059-1.43066l-1.21-.14258c-2.34375-.28613-3.47656-1.34277-3.47656-2.92676,0-2.002,1.66113-3.21191,4.20215-3.21191a7.55862,7.55862,0,0,1,4.16992,1.13281Z"/>
        </g>
        <g class="cls-7">
          <path class="cls-55" d="M970.492,832.157h-8.86816V819.55352h8.78711v1.35938H963.074v4.22168h7.1123v1.35059H963.074v4.3125h7.418Z"/>
          <path class="cls-55" d="M977.40313,827.79082l3.42969,4.36621h-1.64844l-2.69141-3.36719-2.66406,3.36719h-1.57617l3.42188-4.35742-3.332-4.168H973.991l2.57422,3.23145,2.584-3.23145h1.584Z"/>
          <path class="cls-55" d="M990.45391,832.157h-1.3418V830.8875a3.76681,3.76681,0,0,1-3.11523,1.44043,4.43722,4.43722,0,0,1,0-8.86719,3.791,3.791,0,0,1,3.11523,1.44043v-1.26953h1.3418Zm-7.3457-4.26758a3.045,3.045,0,1,0,3.05078-3.16895A3.03452,3.03452,0,0,0,983.1082,827.88945Z"/>
          <path class="cls-55" d="M999.327,825.44121a5.32709,5.32709,0,0,0-2.791-.80176c-1.21484,0-2.0166.51367-2.0166,1.3418,0,.71094.62109,1.0625,1.7373,1.19727l1.00879.126c1.80957.23438,2.8623.98145,2.8623,2.377,0,1.62012-1.458,2.6377-3.75391,2.6377a5.988,5.988,0,0,1-3.55664-1.08984l.62207-1.00781a4.48956,4.48956,0,0,0,2.95215.92773c1.44141,0,2.34961-.47754,2.34961-1.37793,0-.68457-.57617-1.09863-1.78125-1.24219l-1.01758-.11719c-1.918-.23437-2.81836-1.08887-2.81836-2.3584,0-1.61133,1.35938-2.584,3.40332-2.584a6.24462,6.24462,0,0,1,3.38477.92676Z"/>
          <path class="cls-55" d="M1009.407,824.80156l-.86426.90918a3.25445,3.25445,0,0,0-2.33105-.99023,3.17841,3.17841,0,0,0,0,6.34766,3.40975,3.40975,0,0,0,2.35742-1l.83789.91895a4.13758,4.13758,0,0,1-3.16016,1.34082,4.43365,4.43365,0,0,1,0-8.86719A4.12432,4.12432,0,0,1,1009.407,824.80156Z"/>
          <path class="cls-55" d="M1019.61406,832.157h-1.3418V830.8875a3.76814,3.76814,0,0,1-3.11523,1.44043,4.43722,4.43722,0,0,1,0-8.86719,3.79235,3.79235,0,0,1,3.11523,1.44043v-1.26953h1.3418Zm-7.34668-4.26758a3.045,3.045,0,1,0,3.05176-3.16895A3.03473,3.03473,0,0,0,1012.26738,827.88945Z"/>
          <path class="cls-55" d="M1024.11113,832.157h-1.35059V819.19316h1.35059Z"/>
          <path class="cls-55" d="M1034.85039,827.86309a4.58817,4.58817,0,0,1-.02734.50391h-6.833a2.89791,2.89791,0,0,0,3.0166,2.78223,3.94417,3.94417,0,0,0,2.7002-1.07227l.71973.91895a4.78369,4.78369,0,0,1-3.502,1.332,4.43682,4.43682,0,0,1-.08008-8.86719C1033.157,823.46074,1034.83281,825.27031,1034.85039,827.86309Zm-6.8418-.58594h5.47266a2.66717,2.66717,0,0,0-2.66406-2.61914A2.77831,2.77831,0,0,0,1028.00859,827.27715Z"/>
          <path class="cls-55" d="M1055.59648,832.157h-1.44922v-10.9834l-4.39355,9.58789h-1.52148l-4.38379-9.51562V832.157h-1.4502V819.55352h2.19629l4.40234,9.52441,4.39453-9.52441h2.20508Z"/>
          <path class="cls-55" d="M1060.615,820.60625a.9358.9358,0,0,1-.9541.94531.94972.94972,0,0,1,0-1.89941A.94316.94316,0,0,1,1060.615,820.60625Zm-.2793,11.55078h-1.35059v-8.52539h1.35059Z"/>
          <path class="cls-55" d="M1071.2459,826.87285V832.157h-1.34082v-4.84375a2.30144,2.30144,0,0,0-2.459-2.57422,2.50866,2.50866,0,0,0-2.61035,2.61035V832.157h-1.35059v-8.52539h1.332v1.21484a3.37237,3.37237,0,0,1,2.873-1.38574A3.3004,3.3004,0,0,1,1071.2459,826.87285Z"/>
          <path class="cls-55" d="M1075.92363,820.60625a.93581.93581,0,0,1-.9541.94531.94972.94972,0,0,1,0-1.89941A.94316.94316,0,0,1,1075.92363,820.60625Zm-.2793,11.55078h-1.35059v-8.52539h1.35059Z"/>
          <path class="cls-55" d="M1087.12188,827.88945a4.48868,4.48868,0,1,1-4.49219-4.42871A4.365,4.365,0,0,1,1087.12188,827.88945Zm-7.60742,0a3.11521,3.11521,0,1,0,3.11523-3.16895A3.06024,3.06024,0,0,0,1079.51445,827.88945Z"/>
          <path class="cls-55" d="M1106.95879,825.85527a6.50933,6.50933,0,1,1-6.50879-6.48242A6.27747,6.27747,0,0,1,1106.95879,825.85527Zm-11.49707,0a4.99307,4.99307,0,1,0,4.98828-5.08691A4.85893,4.85893,0,0,0,1095.46172,825.85527Z"/>
          <path class="cls-55" d="M1118.34258,827.88945a4.25373,4.25373,0,0,1-4.25781,4.43848,3.76761,3.76761,0,0,1-3.10645-1.43164V832.157h-1.35059V819.19316h1.35059v5.69824a3.767,3.767,0,0,1,3.10645-1.43066A4.25114,4.25114,0,0,1,1118.34258,827.88945Zm-7.4541,0a3.04126,3.04126,0,1,0,3.03418-3.16895A3.01065,3.01065,0,0,0,1110.88848,827.88945Z"/>
          <path class="cls-55" d="M1122.22832,833.56133a2.049,2.049,0,0,1-2.124,2.332,2.701,2.701,0,0,1-1.22461-.28809l.32422-1.16113a1.79363,1.79363,0,0,0,.7832.17969c.54883,0,.89063-.3418.89063-1.125v-9.86719h1.35059Zm.27051-12.95508a.93662.93662,0,0,1-.95508.94531.94972.94972,0,0,1,0-1.89941A.944.944,0,0,1,1122.49883,820.60625Z"/>
          <path class="cls-55" d="M1132.9666,827.86309a4.59492,4.59492,0,0,1-.02637.50391h-6.834a2.89849,2.89849,0,0,0,3.0166,2.78223,3.94055,3.94055,0,0,0,2.7002-1.07227l.7207.91895a4.78514,4.78514,0,0,1-3.502,1.332,4.43684,4.43684,0,0,1-.08106-8.86719C1131.27422,823.46074,1132.948,825.27031,1132.9666,827.86309Zm-6.8418-.58594h5.47363a2.668,2.668,0,0,0-2.665-2.61914A2.7796,2.7796,0,0,0,1126.1248,827.27715Z"/>
          <path class="cls-55" d="M1142.38945,824.80156l-.86426.90918a3.25445,3.25445,0,0,0-2.33105-.99023,3.17841,3.17841,0,0,0,0,6.34766,3.40975,3.40975,0,0,0,2.35742-1l.83789.91895a4.13758,4.13758,0,0,1-3.16016,1.34082,4.43365,4.43365,0,0,1,0-8.86719A4.12432,4.12432,0,0,1,1142.38945,824.80156Z"/>
          <path class="cls-55" d="M1150.5877,824.84648h-3.68262v4.30371c0,1.332.70313,1.918,1.69336,1.918a3.10316,3.10316,0,0,0,1.791-.60352l.63086,1.01758a4.126,4.126,0,0,1-2.53027.8457c-1.83691,0-2.92578-1.00781-2.92578-3.15039v-4.33105H1143.7v-1.21484h1.86426v-2.71h1.34082v2.71h3.68262Z"/>
          <path class="cls-55" d="M1166.23027,821.93926a6.653,6.653,0,0,0-3.79883-1.17969c-1.89941,0-3.25879.85547-3.25879,2.27734,0,1.1709.94531,1.80957,2.9082,2.04395l1.19727.14453c2.0791.252,3.93359,1.13379,3.93359,3.3125,0,2.49414-2.26855,3.79-4.9873,3.79a8.26266,8.26266,0,0,1-4.95215-1.62012l.793-1.15234a6.90589,6.90589,0,0,0,4.15039,1.4043c1.95313,0,3.49219-.792,3.49219-2.2959,0-1.22461-1.05273-1.83691-3.05078-2.06152l-1.26953-.14355c-2.15234-.24316-3.71875-1.24316-3.71875-3.33105,0-2.39551,2.13379-3.73633,4.77148-3.73633a7.65047,7.65047,0,0,1,4.52832,1.377Z"/>
          <path class="cls-55" d="M1175.52617,824.84648h-3.68164v4.30371c0,1.332.70215,1.918,1.69238,1.918a3.10617,3.10617,0,0,0,1.792-.60352l.62988,1.01758a4.12382,4.12382,0,0,1-2.53027.8457c-1.83594,0-2.92578-1.00781-2.92578-3.15039v-4.33105h-1.86328v-1.21484h1.86328v-2.71h1.3418v2.71h3.68164Z"/>
          <path class="cls-55" d="M1186.19219,827.88945a4.48868,4.48868,0,1,1-4.49219-4.42871A4.365,4.365,0,0,1,1186.19219,827.88945Zm-7.60742,0a3.11521,3.11521,0,1,0,3.11523-3.16895A3.06024,3.06024,0,0,0,1178.58477,827.88945Z"/>
          <path class="cls-55" d="M1194.11992,823.74883l-.32422,1.32324a3.2575,3.2575,0,0,0-1.47656-.3418,2.36461,2.36461,0,0,0-2.28613,2.65527V832.157h-1.34082v-8.52539h1.332v1.19727a2.97844,2.97844,0,0,1,2.5293-1.36816A3.659,3.659,0,0,1,1194.11992,823.74883Z"/>
          <path class="cls-55" d="M1203.868,832.157h-1.3418V830.8875a3.76681,3.76681,0,0,1-3.11523,1.44043,4.43722,4.43722,0,0,1,0-8.86719,3.791,3.791,0,0,1,3.11523,1.44043v-1.26953h1.3418Zm-7.3457-4.26758a3.045,3.045,0,1,0,3.05078-3.16895A3.03452,3.03452,0,0,0,1196.52227,827.88945Z"/>
          <path class="cls-55" d="M1213.63164,824.91v-1.27832h1.35156v7.94043c0,2.78125-1.873,4.32129-4.51074,4.32129a5.81131,5.81131,0,0,1-3.59277-1.14355l.59473-1.08008a4.95423,4.95423,0,0,0,2.998.999,2.87286,2.87286,0,0,0,3.15918-3.043v-.873a3.58231,3.58231,0,0,1-3.043,1.44922,4.37323,4.37323,0,0,1,0-8.74121A3.60457,3.60457,0,0,1,1213.63164,824.91Zm-5.89648,2.917a3.00843,3.00843,0,1,0,3.00781-3.10645A2.96561,2.96561,0,0,0,1207.73516,827.827Z"/>
          <path class="cls-55" d="M1225.71953,827.86309a4.58817,4.58817,0,0,1-.02734.50391h-6.833a2.89791,2.89791,0,0,0,3.0166,2.78223,3.94418,3.94418,0,0,0,2.7002-1.07227l.71973.91895a4.78369,4.78369,0,0,1-3.502,1.332,4.43682,4.43682,0,0,1-.08008-8.86719C1224.02617,823.46074,1225.702,825.27031,1225.71953,827.86309Zm-6.8418-.58594h5.47266a2.66717,2.66717,0,0,0-2.66406-2.61914A2.77831,2.77831,0,0,0,1218.87773,827.27715Z"/>
          <path class="cls-55" d="M1242.29766,830.76152l2.56641-7.12988h1.39453l-3.15039,8.52539h-1.59375l-2.54785-7.085-2.53809,7.085h-1.56641l-3.15137-8.52539h1.43066l2.54883,7.12109,2.53809-7.12109h1.5127Z"/>
          <path class="cls-55" d="M1249.86406,820.60625a.93581.93581,0,0,1-.9541.94531.94972.94972,0,0,1,0-1.89941A.94316.94316,0,0,1,1249.86406,820.60625Zm-.2793,11.55078h-1.34961v-8.52539h1.34961Z"/>
          <path class="cls-55" d="M1258.52422,824.84648h-3.68262v4.30371c0,1.332.70215,1.918,1.69238,1.918a3.09841,3.09841,0,0,0,1.791-.60352l.63086,1.01758a4.12086,4.12086,0,0,1-2.5293.8457c-1.83692,0-2.92578-1.00781-2.92578-3.15039v-4.33105h-1.86426v-1.21484h1.86426v-2.71h1.34082v2.71h3.68262Z"/>
          <path class="cls-55" d="M1262.23906,824.82012a3.4015,3.4015,0,0,1,2.85352-1.35937,3.30069,3.30069,0,0,1,3.55664,3.41211V832.157h-1.3418v-4.84375a2.30118,2.30118,0,0,0-2.458-2.57422,2.50919,2.50919,0,0,0-2.61035,2.61035V832.157h-1.35059V819.19316h1.35059Z"/>
          <path class="cls-55" d="M1279.69023,826.50371h-1.49414V832.157h-1.44922V819.55352h1.44922v5.58105h1.52148l5.23047-5.58105h1.873l-5.92383,6.18457,6.31055,6.41895h-1.97168Z"/>
          <path class="cls-55" d="M1296.09844,828.60137a3.8739,3.8739,0,0,1-7.74219,0v-4.96973h1.3418v4.84375a2.52579,2.52579,0,1,0,5.0498,0v-4.84375h1.35059Z"/>
          <path class="cls-55" d="M1307.86211,827.88945a4.25392,4.25392,0,0,1-4.25879,4.43848,3.769,3.769,0,0,1-3.10644-1.43164V832.157h-1.34961V819.19316h1.34961v5.69824a3.76831,3.76831,0,0,1,3.10644-1.43066A4.25134,4.25134,0,0,1,1307.86211,827.88945Zm-7.45508,0a3.04126,3.04126,0,1,0,3.03418-3.16895A3.01122,3.01122,0,0,0,1300.407,827.88945Z"/>
          <path class="cls-55" d="M1317.95,827.86309a4.35877,4.35877,0,0,1-.02734.50391h-6.832a2.89765,2.89765,0,0,0,3.01563,2.78223,3.9484,3.9484,0,0,0,2.70117-1.07227l.71973.91895a4.78514,4.78514,0,0,1-3.502,1.332,4.43684,4.43684,0,0,1-.08105-8.86719C1316.25762,823.46074,1317.93242,825.27031,1317.95,827.86309Zm-6.8418-.58594h5.47363a2.66862,2.66862,0,0,0-2.665-2.61914A2.7796,2.7796,0,0,0,1311.1082,827.27715Z"/>
          <path class="cls-55" d="M1325.87773,823.74883l-.32422,1.32324a3.2575,3.2575,0,0,0-1.47656-.3418,2.36461,2.36461,0,0,0-2.28613,2.65527V832.157H1320.45v-8.52539h1.332v1.19727a2.97844,2.97844,0,0,1,2.5293-1.36816A3.659,3.659,0,0,1,1325.87773,823.74883Z"/>
          <path class="cls-55" d="M1335.68047,826.87285V832.157h-1.3418v-4.84375a2.30118,2.30118,0,0,0-2.458-2.57422,2.50919,2.50919,0,0,0-2.61035,2.61035V832.157h-1.35059v-8.52539h1.332v1.21484a3.37066,3.37066,0,0,1,2.87207-1.38574A3.30069,3.30069,0,0,1,1335.68047,826.87285Z"/>
          <path class="cls-55" d="M1346.31719,827.86309a4.359,4.359,0,0,1-.02734.50391h-6.832a2.89764,2.89764,0,0,0,3.01563,2.78223,3.94839,3.94839,0,0,0,2.70117-1.07227l.71973.91895a4.78514,4.78514,0,0,1-3.502,1.332,4.43684,4.43684,0,0,1-.08106-8.86719C1344.62481,823.46074,1346.29961,825.27031,1346.31719,827.86309Zm-6.8418-.58594h5.47363a2.66862,2.66862,0,0,0-2.665-2.61914A2.7796,2.7796,0,0,0,1339.47539,827.27715Z"/>
          <path class="cls-55" d="M1354.51641,824.84648h-3.68262v4.30371c0,1.332.70215,1.918,1.69238,1.918a3.09842,3.09842,0,0,0,1.791-.60352l.63086,1.01758a4.12086,4.12086,0,0,1-2.5293.8457c-1.83691,0-2.92578-1.00781-2.92578-3.15039v-4.33105h-1.86426v-1.21484h1.86426v-2.71h1.34082v2.71h3.68262Z"/>
          <path class="cls-55" d="M1364.44316,827.86309a4.59517,4.59517,0,0,1-.02637.50391h-6.834a2.89848,2.89848,0,0,0,3.0166,2.78223,3.94055,3.94055,0,0,0,2.70019-1.07227l.7207.91895a4.78514,4.78514,0,0,1-3.502,1.332,4.43684,4.43684,0,0,1-.08105-8.86719C1362.75078,823.46074,1364.42461,825.27031,1364.44316,827.86309Zm-6.8418-.58594h5.47363a2.668,2.668,0,0,0-2.665-2.61914A2.7796,2.7796,0,0,0,1357.60137,827.27715Z"/>
          <path class="cls-55" d="M1372.66875,825.44121a5.32709,5.32709,0,0,0-2.791-.80176c-1.21484,0-2.0166.51367-2.0166,1.3418,0,.71094.62109,1.0625,1.7373,1.19727l1.00879.126c1.80957.23438,2.8623.98145,2.8623,2.377,0,1.62012-1.458,2.6377-3.75391,2.6377a5.988,5.988,0,0,1-3.55664-1.08984l.62207-1.00781a4.48956,4.48956,0,0,0,2.95215.92773c1.44141,0,2.34961-.47754,2.34961-1.37793,0-.68457-.57617-1.09863-1.78125-1.24219l-1.01758-.11719c-1.918-.23437-2.81836-1.08887-2.81836-2.3584,0-1.61133,1.35938-2.584,3.40332-2.584a6.24462,6.24462,0,0,1,3.38477.92676Z"/>
        </g>
        <g>
          <circle class="cls-56" cx="1297.22246" cy="149.25" r="3.67969"/>
          <circle class="cls-57" cx="1315.62102" cy="149.25" r="3.67969"/>
          <circle class="cls-58" cx="1334.01958" cy="149.25" r="3.67969"/>
        </g>
        <g>
          <circle class="cls-56" cx="1310.22246" cy="624.24036" r="3.67969"/>
          <circle class="cls-57" cx="1328.62102" cy="624.24036" r="3.67969"/>
          <circle class="cls-58" cx="1347.01958" cy="624.24036" r="3.67969"/>
        </g>
      </g>
    </g>
  </g>
</svg>
